#!OML:ASF H:\Dans Jumps\Project 1\Capture day 1\Session 1\subject.ASF
:FULLY-SPECIFIED
:DEGREES
426
root 0.619777 17.7436 6.63038 8.65904 -1.29479 -1.1144
lowerback 1.706 -0.00297659 -0.538961
upperback 3.85717 -0.0392149 1.49209
thorax 3.00671 -0.060378 1.83561
lowerneck -13.9227 0.0399857 -1.16901
upperneck 31.407 0.24399 0.394881
head 12.7559 0.0175614 0.391205
rclavicle -3.57812e-015 -6.16232e-015
rhumerus -30.0107 -20.6384 -73.4901
rradius 21.9758
rwrist 36.6609
rhand -19.3278 -25.0371
rfingers 7.12502
rthumb 6.98869 -54.9017
lclavicle -3.57812e-015 -6.16232e-015
lhumerus -22.5673 -0.258542 84.9094
lradius 25.9523
lwrist 11.4216
lhand -27.2645 -6.92044
lfingers 7.12502
lthumb -0.675523 23.0582
rfemur -17.1695 -2.20331 19.6018
rtibia 22.2964
rfoot -11.8858 0.171625
rtoes 12.5097
lfemur -16.5147 6.46005 -18.5191
ltibia 18.9149
lfoot -8.01839 4.50569
ltoes -1.92634
427
root 0.61996 17.7443 6.64328 8.62807 -1.29757 -1.11761
lowerback 1.64347 -0.013829 -0.550049
upperback 3.83572 -0.0535309 1.49033
thorax 3.02025 -0.0677736 1.83986
lowerneck -13.9449 0.0605261 -1.16293
upperneck 31.5601 0.277825 0.378597
head 12.8241 0.0302016 0.389494
rclavicle 1.09332e-015 -5.76476e-015
rhumerus -29.7248 -20.1635 -73.9234
rradius 22.1921
rwrist 36.1513
rhand -19.4692 -25.0039
rfingers 7.12502
rthumb 6.85219 -54.873
lclavicle 1.09332e-015 -5.76476e-015
lhumerus -22.3687 -0.657525 85.1363
lradius 26.2867
lwrist 11.734
lhand -27.3798 -7.13826
lfingers 7.12502
lthumb -0.78695 22.84
rfemur -17.0515 -2.21821 19.6011
rtibia 22.2343
rfoot -11.9074 0.188654
rtoes 12.5175
lfemur -16.4089 6.47599 -18.5118
ltibia 18.877
lfoot -8.05404 4.50762
ltoes -1.90259
428
root 0.620124 17.7448 6.65517 8.60705 -1.29798 -1.12441
lowerback 1.585 -0.0248298 -0.560321
upperback 3.80696 -0.0680396 1.49221
thorax 3.02397 -0.0751957 1.84736
lowerneck -13.9568 0.0769601 -1.16361
upperneck 31.7028 0.305269 0.369106
head 12.8861 0.0401338 0.390585
rclavicle 2.38542e-015 6.55989e-015
rhumerus -29.4493 -19.7047 -74.3325
rradius 22.4061
rwrist 35.7127
rhand -19.5888 -24.9978
rfingers 7.12502
rthumb 6.73679 -54.8706
lclavicle 2.38542e-015 6.55989e-015
lhumerus -22.1677 -1.02089 85.3525
lradius 26.5868
lwrist 12.055
lhand -27.4733 -7.3386
lfingers 7.12502
lthumb -0.877186 22.6393
rfemur -16.9477 -2.23063 19.6047
rtibia 22.1704
rfoot -11.9263 0.202542
rtoes 12.5356
lfemur -16.319 6.47957 -18.5005
ltibia 18.8407
lfoot -8.0834 4.52109
ltoes -1.88283
429
root 0.620267 17.7453 6.66643 8.58979 -1.29901 -1.12964
lowerback 1.52949 -0.0349515 -0.574207
upperback 3.77514 -0.0813403 1.49509
thorax 3.02283 -0.082084 1.85791
lowerneck -13.9579 0.0895648 -1.1694
upperneck 31.8326 0.326174 0.366537
head 12.9405 0.047531 0.394213
rclavicle -2.98177e-016 8.94531e-015
rhumerus -29.181 -19.2732 -74.7169
rradius 22.6118
rwrist 35.3476
rhand -19.6964 -24.9979
rfingers 7.12502
rthumb 6.63291 -54.874
lclavicle -2.98177e-016 8.94531e-015
lhumerus -21.9682 -1.33921 85.5543
lradius 26.863
lwrist 12.3588
lhand -27.499 -7.45307
lfingers 7.12502
lthumb -0.90205 22.5248
rfemur -16.8507 -2.23994 19.6065
rtibia 22.1059
rfoot -11.9442 0.214504
rtoes 12.5575
lfemur -16.2354 6.47503 -18.4906
ltibia 18.8037
lfoot -8.1066 4.54363
ltoes -1.87036
430
root 0.620438 17.7456 6.67745 8.57639 -1.30137 -1.13648
lowerback 1.47081 -0.0427986 -0.586038
upperback 3.74133 -0.0916072 1.49862
thorax 3.02132 -0.0873908 1.86798
lowerneck -13.951 0.0977725 -1.18192
upperneck 31.9533 0.339481 0.373115
head 12.9896 0.0520269 0.40139
rclavicle -9.44227e-016 -1.39149e-015
rhumerus -28.9231 -18.8739 -75.0762
rradius 22.812
rwrist 35.0388
rhand -19.7852 -24.9911
rfingers 7.12502
rthumb 6.54719 -54.8699
lclavicle -9.44227e-016 -1.39149e-015
lhumerus -21.7682 -1.6179 85.7421
lradius 27.1074
lwrist 12.6154
lhand -27.4763 -7.50094
lfingers 7.12502
lthumb -0.880109 22.477
rfemur -16.7586 -2.24851 19.6097
rtibia 22.0396
rfoot -11.964 0.229891
rtoes 12.593
lfemur -16.1561 6.46618 -18.4787
ltibia 18.7652
lfoot -8.12757 4.57151
ltoes -1.86022
431
root 0.620755 17.746 6.68861 8.56373 -1.30319 -1.14212
lowerback 1.40723 -0.0487895 -0.595659
upperback 3.708 -0.0993849 1.50106
thorax 3.02296 -0.0913929 1.87572
lowerneck -13.9383 0.10276 -1.19878
upperneck 32.0645 0.347228 0.385864
head 13.0337 0.0544272 0.410861
rclavicle -2.88238e-015 -2.98177e-015
rhumerus -28.6753 -18.4967 -75.4164
rradius 23.0086
rwrist 34.7636
rhand -19.8598 -24.997
rfingers 7.12502
rthumb 6.4752 -54.8781
lclavicle -2.88238e-015 -2.98177e-015
lhumerus -21.5666 -1.86986 85.9172
lradius 27.3233
lwrist 12.8342
lhand -27.4162 -7.50752
lfingers 7.12502
lthumb -0.822077 22.4706
rfemur -16.6661 -2.26529 19.6112
rtibia 21.9719
rfoot -11.9862 0.253577
rtoes 12.633
lfemur -16.0741 6.45812 -18.4685
ltibia 18.721
lfoot -8.14895 4.59707
ltoes -1.85747
432
root 0.6213 17.7464 6.70001 8.55159 -1.30274 -1.1471
lowerback 1.3363 -0.0537565 -0.601218
upperback 3.67637 -0.105818 1.5027
thorax 3.03045 -0.0946399 1.88037
lowerneck -13.9227 0.106849 -1.21869
upperneck 32.1665 0.353623 0.401334
head 13.0733 0.0562798 0.421704
rclavicle 3.62782e-015 6.55989e-015
rhumerus -28.436 -18.142 -75.7386
rradius 23.2008
rwrist 34.5014
rhand -19.9373 -24.9861
rfingers 7.12502
rthumb 6.40031 -54.8694
lclavicle 3.62782e-015 6.55989e-015
lhumerus -21.3575 -2.1018 86.0827
lradius 27.4971
lwrist 13.0225
lhand -27.3427 -7.48228
lfingers 7.12502
lthumb -0.751076 22.4961
rfemur -16.5721 -2.29745 19.612
rtibia 21.9025
rfoot -12.009 0.290326
rtoes 12.6725
lfemur -15.9888 6.45443 -18.4603
ltibia 18.6715
lfoot -8.17183 4.61448
ltoes -1.85914
433
root 0.622019 17.747 6.7115 8.53964 -1.3028 -1.14868
lowerback 1.26161 -0.0571952 -0.606662
upperback 3.64452 -0.110174 1.50282
thorax 3.03975 -0.096831 1.88342
lowerneck -13.9084 0.112014 -1.23719
upperneck 32.2655 0.361693 0.415473
head 13.1121 0.0588798 0.432055
rclavicle 1.98785e-015 -8.94531e-015
rhumerus -28.2059 -17.8072 -76.0434
rradius 23.3842
rwrist 34.2423
rhand -20.0066 -24.9765
rfingers 7.12502
rthumb 6.33344 -54.8618
lclavicle 1.98785e-015 -8.94531e-015
lhumerus -21.1448 -2.31019 86.2376
lradius 27.6282
lwrist 13.1682
lhand -27.2865 -7.49895
lfingers 7.12502
lthumb -0.696827 22.4797
rfemur -16.4783 -2.34063 19.6088
rtibia 21.8333
rfoot -12.0324 0.338132
rtoes 12.7088
lfemur -15.9002 6.45191 -18.4564
ltibia 18.6162
lfoot -8.19548 4.62851
ltoes -1.86183
434
root 0.622843 17.7476 6.72259 8.53097 -1.30522 -1.15093
lowerback 1.18553 -0.0591166 -0.610614
upperback 3.61241 -0.112518 1.50327
thorax 3.0495 -0.0979819 1.88599
lowerneck -13.8981 0.118349 -1.25691
upperneck 32.3579 0.371715 0.430189
head 13.1489 0.0622923 0.443145
rclavicle -1.54058e-015 -2.16675e-014
rhumerus -27.9794 -17.493 -76.3334
rradius 23.5581
rwrist 33.9825
rhand -20.0745 -24.9717
rfingers 7.12502
rthumb 6.26792 -54.8589
lclavicle -1.54058e-015 -2.16675e-014
lhumerus -20.9268 -2.49429 86.3832
lradius 27.7144
lwrist 13.2769
lhand -27.2442 -7.52096
lfingers 7.12502
lthumb -0.655937 22.4578
rfemur -16.3909 -2.38876 19.6066
rtibia 21.7652
rfoot -12.0509 0.391834
rtoes 12.7327
lfemur -15.8159 6.45264 -18.453
ltibia 18.5599
lfoot -8.21844 4.64037
ltoes -1.87306
435
root 0.623663 17.7482 6.733 8.52296 -1.31153 -1.15245
lowerback 1.11283 -0.0594401 -0.615763
upperback 3.58185 -0.112715 1.50314
thorax 3.05886 -0.0980925 1.88866
lowerneck -13.8985 0.124736 -1.27273
upperneck 32.4465 0.38175 0.442263
head 13.1866 0.0658427 0.452559
rclavicle -3.67752e-015 3.37934e-015
rhumerus -27.7512 -17.199 -76.6118
rradius 23.7186
rwrist 33.73
rhand -20.1348 -24.9742
rfingers 7.12502
rthumb 6.20966 -54.8631
lclavicle -3.67752e-015 3.37934e-015
lhumerus -20.7074 -2.65002 86.5185
lradius 27.7624
lwrist 13.3451
lhand -27.2259 -7.57219
lfingers 7.12502
lthumb -0.638248 22.4066
rfemur -16.3093 -2.43553 19.6038
rtibia 21.7002
rfoot -12.0667 0.446252
rtoes 12.7493
lfemur -15.7346 6.45336 -18.4506
ltibia 18.5045
lfoot -8.2388 4.65501
ltoes -1.88725
436
root 0.624285 17.7488 6.74228 8.51977 -1.32263 -1.16116
lowerback 1.04524 -0.0569216 -0.617178
upperback 3.5508 -0.109194 1.50531
thorax 3.06471 -0.0962539 1.89167
lowerneck -13.9112 0.129823 -1.28485
upperneck 32.5322 0.389788 0.452098
head 13.2258 0.0686827 0.460192
rclavicle -2.28602e-015 0
rhumerus -27.5188 -16.9389 -76.8752
rradius 23.8618
rwrist 33.5
rhand -20.1854 -24.9889
rfingers 7.12502
rthumb 6.16085 -54.8793
lclavicle -2.28602e-015 0
lhumerus -20.4909 -2.77758 86.6447
lradius 27.779
lwrist 13.3748
lhand -27.2116 -7.60339
lfingers 7.12502
lthumb -0.624472 22.3754
rfemur -16.2404 -2.46573 19.6095
rtibia 21.6392
rfoot -12.0763 0.489147
rtoes 12.7636
lfemur -15.6649 6.45139 -18.4396
ltibia 18.4538
lfoot -8.25383 4.67632
ltoes -1.8987
437
root 0.624787 17.7493 6.75062 8.51538 -1.3386 -1.17227
lowerback 0.986054 -0.0523652 -0.619029
upperback 3.52199 -0.102978 1.50815
thorax 3.06804 -0.0930918 1.89567
lowerneck -13.9392 0.135607 -1.2842
upperneck 32.616 0.398795 0.451906
head 13.2677 0.0721794 0.461862
rclavicle -3.32964e-015 -1.21259e-014
rhumerus -27.28 -16.7045 -77.1286
rradius 23.9883
rwrist 33.2948
rhand -20.2151 -25.0275
rfingers 7.12502
rthumb 6.13212 -54.9188
lclavicle -3.32964e-015 -1.21259e-014
lhumerus -20.2838 -2.86543 86.7594
lradius 27.7755
lwrist 13.3604
lhand -27.1958 -7.60857
lfingers 7.12502
lthumb -0.609193 22.3703
rfemur -16.1771 -2.48478 19.618
rtibia 21.5827
rfoot -12.0812 0.525769
rtoes 12.7788
lfemur -15.5995 6.44755 -18.4252
ltibia 18.4081
lfoot -8.26524 4.7031
ltoes -1.90499
438
root 0.625131 17.7497 6.75807 8.5107 -1.36093 -1.18619
lowerback 0.934462 -0.0445721 -0.620489
upperback 3.49441 -0.0924538 1.51105
thorax 3.0682 -0.0877565 1.8996
lowerneck -13.9774 0.141065 -1.27037
upperneck 32.6956 0.407723 0.43981
head 13.3102 0.0757049 0.456558
rclavicle 8.49804e-015 2.98177e-015
rhumerus -27.0373 -16.4956 -77.3728
rradius 24.0991
rwrist 33.1176
rhand -20.2394 -25.0621
rfingers 7.12502
rthumb 6.10868 -54.9541
lclavicle 8.49804e-015 2.98177e-015
lhumerus -20.0899 -2.91225 86.8628
lradius 27.7554
lwrist 13.3012
lhand -27.1784 -7.60016
lfingers 7.12502
lthumb -0.592433 22.3788
rfemur -16.1199 -2.49109 19.6296
rtibia 21.5307
rfoot -12.0838 0.556405
rtoes 12.7938
lfemur -15.5399 6.44401 -18.4071
ltibia 18.3687
lfoot -8.27399 4.73532
ltoes -1.90783
